<mxfile host="65bd71144e">
    <diagram id="or_I-2gk95bhSMcV0AQn" name="Page-1">
        <mxGraphModel dx="2080" dy="488" grid="1" gridSize="10" guides="1" tooltips="1" connect="1" arrows="1" fold="1" page="1" pageScale="1" pageWidth="850" pageHeight="1100" math="0" shadow="0">
            <root>
                <mxCell id="0"/>
                <mxCell id="1" parent="0"/>
                <mxCell id="2" value="" style="shape=umlLifeline;perimeter=lifelinePerimeter;whiteSpace=wrap;html=1;container=1;dropTarget=0;collapsible=0;recursiveResize=0;outlineConnect=0;portConstraint=eastwest;newEdgeStyle={&quot;edgeStyle&quot;:&quot;elbowEdgeStyle&quot;,&quot;elbow&quot;:&quot;vertical&quot;,&quot;curved&quot;:0,&quot;rounded&quot;:0};participant=umlActor;fillColor=#fff2cc;strokeColor=#000000;" vertex="1" parent="1">
                    <mxGeometry x="-310" y="560" width="20" height="480" as="geometry"/>
                </mxCell>
                <mxCell id="3" value="MedIN" style="shape=umlLifeline;perimeter=lifelinePerimeter;whiteSpace=wrap;html=1;container=1;dropTarget=0;collapsible=0;recursiveResize=0;outlineConnect=0;portConstraint=eastwest;newEdgeStyle={&quot;edgeStyle&quot;:&quot;elbowEdgeStyle&quot;,&quot;elbow&quot;:&quot;vertical&quot;,&quot;curved&quot;:0,&quot;rounded&quot;:0};fillColor=#e1d5e7;strokeColor=#9673a6;" vertex="1" parent="1">
                    <mxGeometry x="-120" y="560" width="130" height="480" as="geometry"/>
                </mxCell>
                <mxCell id="4" value="" style="html=1;points=[];perimeter=orthogonalPerimeter;outlineConnect=0;targetShapes=umlLifeline;portConstraint=eastwest;newEdgeStyle={&quot;edgeStyle&quot;:&quot;elbowEdgeStyle&quot;,&quot;elbow&quot;:&quot;vertical&quot;,&quot;curved&quot;:0,&quot;rounded&quot;:0};fillColor=#e1d5e7;strokeColor=#9673a6;" vertex="1" parent="3">
                    <mxGeometry x="60" y="80" width="10" height="60" as="geometry"/>
                </mxCell>
                <mxCell id="5" value="" style="html=1;points=[];perimeter=orthogonalPerimeter;outlineConnect=0;targetShapes=umlLifeline;portConstraint=eastwest;newEdgeStyle={&quot;edgeStyle&quot;:&quot;elbowEdgeStyle&quot;,&quot;elbow&quot;:&quot;vertical&quot;,&quot;curved&quot;:0,&quot;rounded&quot;:0};fillColor=#e1d5e7;strokeColor=#9673a6;" vertex="1" parent="3">
                    <mxGeometry x="60" y="340" width="10" height="60" as="geometry"/>
                </mxCell>
                <mxCell id="6" value="Teenuse Kasutaja (TTO klientsüsteem, TJT)" style="text;html=1;strokeColor=none;fillColor=none;align=center;verticalAlign=middle;whiteSpace=wrap;rounded=0;" vertex="1" parent="1">
                    <mxGeometry x="-370" y="510" width="140" height="50" as="geometry"/>
                </mxCell>
                <mxCell id="7" value="" style="html=1;points=[];perimeter=orthogonalPerimeter;outlineConnect=0;targetShapes=umlLifeline;portConstraint=eastwest;newEdgeStyle={&quot;edgeStyle&quot;:&quot;elbowEdgeStyle&quot;,&quot;elbow&quot;:&quot;vertical&quot;,&quot;curved&quot;:0,&quot;rounded&quot;:0};fillColor=#fff2cc;strokeColor=#d6b656;" vertex="1" parent="1">
                    <mxGeometry x="-305" y="640" width="10" height="80" as="geometry"/>
                </mxCell>
                <mxCell id="8" value="Päritakse Patsiend MPI viite alusel kehtiv Ravimiskeem" style="text;html=1;strokeColor=none;fillColor=none;align=right;verticalAlign=middle;whiteSpace=wrap;rounded=0;fontSize=11;" vertex="1" parent="1">
                    <mxGeometry x="-430" y="620" width="120" height="70" as="geometry"/>
                </mxCell>
                <mxCell id="9" value="&lt;div&gt;GET [base]/MedicationStatement/&lt;/div&gt;&lt;div&gt;$confirmed-medication-scheme&lt;/div&gt;&lt;div&gt;&lt;br style=&quot;text-wrap: wrap;&quot;&gt;&lt;/div&gt;" style="html=1;verticalAlign=bottom;startArrow=oval;startFill=1;endArrow=block;startSize=8;edgeStyle=elbowEdgeStyle;elbow=vertical;curved=0;rounded=0;" edge="1" parent="1" source="7" target="4">
                    <mxGeometry width="60" relative="1" as="geometry">
                        <mxPoint x="-295" y="854.58" as="sourcePoint"/>
                        <mxPoint x="-235" y="854.58" as="targetPoint"/>
                        <Array as="points">
                            <mxPoint x="-160" y="650"/>
                            <mxPoint x="-280" y="855"/>
                        </Array>
                    </mxGeometry>
                </mxCell>
                <mxCell id="10" value="FHIR Bundle" style="html=1;verticalAlign=bottom;endArrow=open;dashed=1;endSize=8;edgeStyle=elbowEdgeStyle;elbow=vertical;curved=0;rounded=0;" edge="1" parent="1" source="4" target="7">
                    <mxGeometry relative="1" as="geometry">
                        <mxPoint x="-120" y="930" as="sourcePoint"/>
                        <mxPoint x="-200" y="930" as="targetPoint"/>
                        <Array as="points">
                            <mxPoint x="-140" y="700"/>
                            <mxPoint x="-210" y="940"/>
                        </Array>
                    </mxGeometry>
                </mxCell>
                <mxCell id="11" value="Lõppkasutaja valib eemaldada ravimiskeemi rea, lisades ka eemaldamise põhjuse" style="text;html=1;strokeColor=none;fillColor=none;align=right;verticalAlign=middle;whiteSpace=wrap;rounded=0;fontSize=11;" vertex="1" parent="1">
                    <mxGeometry x="-430" y="770" width="120" height="30" as="geometry"/>
                </mxCell>
                <mxCell id="12" value="" style="html=1;points=[];perimeter=orthogonalPerimeter;outlineConnect=0;targetShapes=umlLifeline;portConstraint=eastwest;newEdgeStyle={&quot;edgeStyle&quot;:&quot;elbowEdgeStyle&quot;,&quot;elbow&quot;:&quot;vertical&quot;,&quot;curved&quot;:0,&quot;rounded&quot;:0};fillColor=#fff2cc;strokeColor=#d6b656;" vertex="1" parent="1">
                    <mxGeometry x="-305" y="720" width="10" height="290" as="geometry"/>
                </mxCell>
                <mxCell id="13" value="Ravimiskeem kuvatakse lõppkasutajale." style="text;html=1;strokeColor=none;fillColor=none;align=right;verticalAlign=middle;whiteSpace=wrap;rounded=0;fontSize=11;" vertex="1" parent="1">
                    <mxGeometry x="-430" y="680" width="120" height="70" as="geometry"/>
                </mxCell>
                <mxCell id="14" value="POST [base]/MedicationStatement/&lt;div&gt;$confirm&lt;/div&gt;" style="html=1;verticalAlign=bottom;startArrow=oval;startFill=1;endArrow=block;startSize=8;edgeStyle=elbowEdgeStyle;elbow=vertical;curved=0;rounded=0;" edge="1" parent="1" source="12" target="5">
                    <mxGeometry width="60" relative="1" as="geometry">
                        <mxPoint x="-260" y="1054.58" as="sourcePoint"/>
                        <mxPoint x="-200" y="1054.58" as="targetPoint"/>
                        <Array as="points">
                            <mxPoint x="-100" y="900"/>
                            <mxPoint x="-120" y="750"/>
                            <mxPoint x="-270" y="760"/>
                            <mxPoint x="-110" y="990"/>
                            <mxPoint x="-245" y="1055"/>
                        </Array>
                    </mxGeometry>
                </mxCell>
                <mxCell id="15" value="FHIR Bundle" style="html=1;verticalAlign=bottom;endArrow=open;dashed=1;endSize=8;edgeStyle=elbowEdgeStyle;elbow=vertical;curved=0;rounded=0;" edge="1" parent="1" source="5" target="12">
                    <mxGeometry relative="1" as="geometry">
                        <mxPoint x="-85" y="1130" as="sourcePoint"/>
                        <mxPoint x="-165" y="1130" as="targetPoint"/>
                        <Array as="points">
                            <mxPoint x="-100" y="960"/>
                            <mxPoint x="-140" y="1080"/>
                            <mxPoint x="-175" y="1140"/>
                        </Array>
                    </mxGeometry>
                </mxCell>
                <mxCell id="16" value="Lõppkasutaja on muudatustega lõpule jõudnud ja soovib Patsiendi ravimiskeemi kinnitada, retseptid tühistada" style="text;html=1;strokeColor=none;fillColor=none;align=right;verticalAlign=middle;whiteSpace=wrap;rounded=0;fontSize=11;" vertex="1" parent="1">
                    <mxGeometry x="-470" y="880" width="160" height="40" as="geometry"/>
                </mxCell>
                <mxCell id="17" value="Ravimiskeemi muudatuste kinnitamine" style="text;html=1;strokeColor=none;fillColor=none;align=center;verticalAlign=middle;whiteSpace=wrap;rounded=0;fontSize=11;fontStyle=2" vertex="1" parent="1">
                    <mxGeometry x="-260" y="900" width="170" height="30" as="geometry"/>
                </mxCell>
            </root>
        </mxGraphModel>
    </diagram>
</mxfile>